HIERARCHY
ROOT Hips
{
	OFFSET -3.958830 18.904000 13.208200
	CHANNELS 6 Xposition Yposition Zposition Zrotation Yrotation Xrotation 
	JOINT LHipJoint
	{
		OFFSET 0.000000 0.000000 0.000000
		CHANNELS 3 Zrotation Yrotation Xrotation
		JOINT LeftUpLeg
		{
			OFFSET 1.800000 -1.400000 0.085000
			CHANNELS 3 Zrotation Yrotation Xrotation
			JOINT LeftLeg
			{
				OFFSET 2.215000 -6.000000 0.000000
				CHANNELS 3 Zrotation Yrotation Xrotation
				JOINT LeftFoot
				{
					OFFSET 2.500000 -6.900000 0.000000
					CHANNELS 3 Zrotation Yrotation Xrotation
					JOINT LeftToeBase
					{
						OFFSET 0.200000 -0.500000 1.950000
						CHANNELS 3 Zrotation Yrotation Xrotation
						End Site
						{
							OFFSET 0.000000 0.000000 0.000000
						}
					}
				}
			}
		}
	}
	JOINT RHipJoint
	{
		OFFSET 0.000000 0.000000 0.000000
		CHANNELS 3 Zrotation Yrotation Xrotation
		JOINT RightUpLeg
		{
			OFFSET -1.800000 -1.400000 0.085000
			CHANNELS 3 Zrotation Yrotation Xrotation
			JOINT RightLeg
			{
				OFFSET -2.215000 -6.000000 0.000000
				CHANNELS 3 Zrotation Yrotation Xrotation
				JOINT RightFoot
				{
					OFFSET -2.500000 -6.900000 0.000000
					CHANNELS 3 Zrotation Yrotation Xrotation
					JOINT RightToeBase
					{
						OFFSET -0.200000 -0.500000 1.950000
						CHANNELS 3 Zrotation Yrotation Xrotation
						End Site
						{
							OFFSET 0.000000 0.000000 0.000000
						}
					}
				}
			}
		}
	}
	JOINT LowerBack
	{
		OFFSET 0.000000 0.000000 0.000000
		CHANNELS 3 Zrotation Yrotation Xrotation
		JOINT Spine
		{
			OFFSET -0.087000 1.940000 -0.288900
			CHANNELS 3 Zrotation Yrotation Xrotation
			JOINT Spine1
			{
				OFFSET 0.000000 1.950000 0.060000
				CHANNELS 3 Zrotation Yrotation Xrotation
				JOINT Neck
				{
					OFFSET 0.000000 0.000000 0.000000
					CHANNELS 3 Zrotation Yrotation Xrotation
					JOINT Neck1
					{
						OFFSET 0.000000 1.600000 0.340000
						CHANNELS 3 Zrotation Yrotation Xrotation
						JOINT Head
						{
							OFFSET 0.000000 1.667000 -0.240000
							CHANNELS 3 Zrotation Yrotation Xrotation
							End Site
							{
								OFFSET 0.000000 0.000000 0.000000
							}
						}
					}
				}
				JOINT LeftShoulder
				{
					OFFSET 0.000000 0.000000 0.000000
					CHANNELS 3 Zrotation Yrotation Xrotation
					JOINT LeftArm
					{
						OFFSET 2.700000 1.550000 -0.730000
						CHANNELS 3 Zrotation Yrotation Xrotation
						JOINT LeftForeArm
						{
							OFFSET 5.450000 0.000000 0.000000
							CHANNELS 3 Zrotation Yrotation Xrotation
							JOINT LeftHand
							{
								OFFSET 3.450000 0.000000 0.000000
								CHANNELS 3 Zrotation Yrotation Xrotation
								JOINT LeftHandIndex1
								{
									OFFSET 0.750000 0.000000 0.000000
									CHANNELS 3 Zrotation Yrotation Xrotation
									End Site
									{
										OFFSET 0.000000 0.000000 0.000000
									}
								}
							}
						}
					}
				}
				JOINT RightShoulder
				{
					OFFSET 0.000000 0.000000 0.000000
					CHANNELS 3 Zrotation Yrotation Xrotation
					JOINT RightArm
					{
						OFFSET -2.700000 1.550000 -0.730000
						CHANNELS 3 Zrotation Yrotation Xrotation
						JOINT RightForeArm
						{
							OFFSET -5.450000 0.000000 0.000000
							CHANNELS 3 Zrotation Yrotation Xrotation
							JOINT RightHand
							{
								OFFSET -3.450000 0.000000 0.000000
								CHANNELS 3 Zrotation Yrotation Xrotation
								JOINT RightHandIndex1
								{
									OFFSET -0.750000 0.000000 0.000000
									CHANNELS 3 Zrotation Yrotation Xrotation
									End Site
									{
										OFFSET 0.000000 0.000000 0.000000
									}
								}
							}
						}
					}
				}
			}
		}
	}
}
MOTION
Frames: 8
Frame Time: 0.016667
0.513210 15.755580 -1.653560 0.547336 -5.140960 4.812394 -15.065601 12.347310 3.245939 3.574677 -4.769381 -21.208713 -14.690798 11.746230 31.311002 -0.923052 7.779350 2.023930 0.933340 0.116680 0.812580 18.591051 -9.347429 3.903680 -0.501398 7.392919 -39.219681 5.730978 -2.336806 5.239679 0.020341 -1.210326 4.220595 0.453360 0.380560 0.207010 -4.208219 -1.872066 -7.772605 16.736778 -6.401822 17.593264 -8.505348 -2.338499 7.886967 2.022772 -8.025228 -9.471064 -13.264242 7.248436 16.064845 -4.453990 2.777370 -23.705210 -22.908114 -3.050764 3.990207 -26.956366 12.734337 -4.354474 -129.912351 -53.507686 76.978498 -3.843689 3.271791 1.167770 0.179750 -0.152100 0.409260 19.042673 6.901426 6.514894 23.162229 -14.260355 -9.365701 98.909566 56.284571 46.720130 1.457703 -1.764857 -0.707190 0.709870 -0.039930 -0.695210 
0.548950 15.619640 -1.668390 1.354714 -4.957065 4.354779 -15.088694 12.296925 3.374407 3.331680 -5.121054 -21.251988 -16.011064 12.738666 32.780174 -0.780739 8.244302 1.868521 0.912900 0.092010 0.806850 18.575639 -9.252950 3.944841 -1.494774 7.456207 -41.178557 5.184898 -2.599200 7.810486 0.024322 -1.225166 4.207567 0.429750 0.378310 0.202800 -4.147368 -1.958592 -7.882416 16.184609 -6.774228 19.282969 -8.241752 -2.625489 6.557381 2.034957 -7.857447 -9.285919 -12.929206 7.395013 15.876334 -4.343660 2.762330 -23.863700 -24.092568 -3.228253 3.937753 -28.196797 13.969620 -5.996054 -120.388445 -54.951248 67.461051 -3.833264 3.238395 1.166510 0.171140 -0.150250 0.402110 20.197463 7.064351 6.290105 25.310681 -13.350515 -10.253813 94.375610 58.756074 45.330253 1.527533 -1.677058 -0.704090 0.706570 -0.036720 -0.690980 
0.592610 15.499530 -1.676420 1.699149 -4.355797 2.419686 -15.080460 12.391296 3.441862 3.345646 -5.203701 -19.891937 -16.524227 13.638950 34.622343 -0.624870 8.718602 1.719482 0.837460 -0.000280 0.778210 18.555223 -9.283252 3.952171 -3.041379 7.337049 -42.185014 5.243519 -3.324005 12.779246 0.007764 -1.493923 4.110394 0.361120 0.366080 0.171620 -4.109586 -2.066318 -7.977526 16.488868 -7.801556 22.965688 -8.489337 -3.164769 4.040611 2.238824 -8.031707 -8.959923 -13.323998 7.576772 16.539229 -4.543290 2.794990 -24.127000 -26.240914 -3.325291 3.566711 -29.401808 15.113858 -7.868671 -106.175727 -55.981837 54.650250 -3.788138 3.177821 1.184570 0.142550 -0.158300 0.368530 21.856537 7.300350 6.102931 27.296583 -12.326402 -11.170507 87.878370 61.374985 42.800280 1.612328 -1.564203 -0.723170 0.701900 -0.008340 -0.698170 
0.631840 15.418020 -1.682430 1.501911 -4.107965 -0.790639 -15.056200 12.514462 3.446935 4.193679 -4.870758 -17.439632 -17.311988 14.887304 36.386720 -0.373828 9.259952 1.553354 0.802720 -0.054590 0.776360 18.547281 -9.322583 4.012838 -4.410574 7.744395 -43.095758 4.721981 -4.510072 21.460023 -0.116992 -2.271980 3.817451 0.279080 0.310340 0.168310 -4.104533 -2.149685 -8.081052 17.701322 -9.213480 28.369883 -9.307129 -3.640033 0.439916 2.535666 -8.617304 -8.459251 -14.607280 7.529722 18.315888 -4.769040 2.400150 -24.805250 -29.496521 -3.403746 2.878158 -29.566709 16.021370 -9.365998 -90.000616 -55.909709 41.952090 -3.636596 3.183459 1.199160 0.078820 -0.125490 0.350630 24.297991 7.814729 5.964106 28.898016 -11.101482 -11.947233 78.356850 63.475086 38.337246 1.663183 -1.544290 -0.682030 0.652770 -0.019270 -0.685660 
0.648770 15.333180 -1.678260 1.736481 -4.242190 -2.525638 -15.111995 12.407912 3.456755 5.076597 -4.759539 -16.995603 -18.521144 16.795878 38.886083 -0.056232 10.020095 1.324242 0.720390 -0.149160 0.729280 18.545433 -8.932357 4.383784 -7.132127 9.230455 -46.786538 4.676189 -6.399317 33.033835 -0.356789 -3.967043 3.218339 0.180290 0.303530 0.181730 -4.015821 -2.439811 -8.359319 17.677451 -9.441344 31.566300 -9.322886 -3.579048 -3.079255 2.903293 -8.668887 -8.006495 -15.085799 7.483097 20.730494 -5.859340 2.530510 -22.779470 -32.332973 -3.380257 2.223325 -31.110424 16.924608 -10.894147 -69.044776 -54.194278 27.840152 -3.498144 3.198580 1.158090 0.078560 -0.131860 0.332680 26.190095 8.141576 5.778971 31.657253 -10.036970 -12.902831 65.516134 63.719172 31.319200 1.607463 -1.616514 -0.642170 0.587730 -0.005890 -0.662370 
0.663980 15.283430 -1.663740 1.797510 -4.278716 -4.028505 -15.178971 12.284967 3.419124 6.105748 -4.504150 -16.728143 -19.345853 18.612646 41.199104 0.208049 10.703658 1.122337 0.628350 -0.257460 0.690460 18.544297 -8.479649 4.784506 -10.539052 10.772101 -49.662737 5.769980 -9.061033 43.919840 -0.719434 -6.054598 2.534084 0.076180 0.289710 0.182300 -3.921163 -2.778897 -8.684923 17.949752 -9.376243 33.997419 -9.537789 -3.261280 -6.267418 3.539915 -8.146219 -7.675708 -14.745572 7.087329 24.367862 -7.332750 2.923480 -21.658920 -35.005295 -3.743180 1.560491 -32.250931 17.329246 -11.923661 -49.026547 -48.656073 15.233465 -3.379842 3.130855 1.162090 0.070800 -0.123520 0.306090 27.359767 8.463153 5.770836 35.341731 -9.626591 -14.512694 52.773201 62.448834 23.931397 1.543952 -1.596558 -0.629540 0.550470 0.016720 -0.660300 
0.671350 15.230860 -1.618090 1.885634 -3.190029 -4.786980 -15.231273 12.111286 3.362517 6.844612 -4.478930 -17.299907 -18.995905 20.057712 44.200747 0.373456 11.329302 0.912088 0.560250 -0.338900 0.682850 18.564151 -8.073258 5.124188 -15.280344 11.419569 -51.930330 8.542871 -13.418296 53.992461 -1.208638 -8.445372 1.782878 0.010580 0.260590 0.173610 -3.883726 -3.016444 -9.000266 18.419613 -9.159289 33.631015 -9.997173 -3.257770 -8.075343 4.274389 -6.949920 -7.042302 -13.158761 6.521995 28.566662 -8.966830 3.549810 -21.066210 -36.893084 -3.576134 0.669195 -33.628815 16.261793 -11.636747 -31.102566 -39.083521 5.802720 -3.360106 2.978482 1.190300 0.062240 -0.110190 0.263500 27.488930 7.489247 5.349755 40.208579 -8.680384 -15.832884 43.629563 60.808919 18.638121 1.518361 -1.498213 -0.639680 0.533410 0.046470 -0.685750 
0.668660 15.214480 -1.566540 1.845066 -1.476215 -5.560945 -15.214223 12.044395 3.283842 7.362823 -4.369231 -17.754056 -17.532985 20.465801 46.538729 0.447899 11.624370 0.801600 0.563820 -0.357790 0.708660 18.603910 -7.976724 5.222172 -18.925518 11.281467 -51.501344 10.736602 -17.623300 61.065373 -1.658640 -10.300757 1.226194 -0.016960 0.222660 0.192790 -3.966906 -3.028428 -9.148727 19.646852 -9.256485 32.038608 -10.981714 -3.576138 -8.816750 4.720761 -6.115671 -6.489177 -12.211062 6.272307 32.684636 -9.352760 3.548870 -20.003760 -38.867147 -3.578866 0.031838 -33.868556 14.689327 -9.960322 -18.688267 -28.364887 1.056791 -3.371065 2.853708 1.207660 0.043230 -0.086500 0.248380 28.244238 6.585077 4.963081 43.672524 -7.608939 -16.249564 40.955621 59.623154 16.829576 1.536200 -1.463002 -0.616100 0.495850 0.042510 -0.697340 
